<?xml version="1.0" encoding="UTF-8"?><svg id="Layer_2" xmlns="http://www.w3.org/2000/svg" viewBox="0 0 70 70"><defs><style>.cls-1{fill:#fff;}.cls-2{fill:#d11e3c;}.cls-3{opacity:.63;}.cls-4{fill:#00b71e;}.cls-5{fill:none;}</style></defs><g id="Layer_1-2"><path class="cls-5" d="M56,0H0V70H70V0h-14Z"/><g><path class="cls-2" d="M43.62,42.42c.3,4.31-3.14,9.51-8.51,9.93-5.31,.41-9.65-4.08-9.93-8.51-.22-3.46,2.02-7.36,4.63-7.9,1.38-.28,1.86,.58,4.38,.55,2.75-.03,3.34-1.06,4.85-.77,2.44,.47,4.37,3.82,4.57,6.7Z"/><path class="cls-1" d="M26.33,42.01c-.31,1.92,.53,3.67,.73,3.64,.17-.03-.19-1.32,.12-3.32,.36-2.28,1.28-3.56,1.12-3.65-.18-.1-1.65,1.33-1.97,3.33Z"/><ellipse class="cls-3" cx="34.17" cy="36.87" rx=".74" ry=".2"/><path class="cls-4" d="M39.89,17.63c.53,.08,.62,3.62,.03,6.74-.09,.46-.47,1.66-1.22,4.07,0,0-.64,2.04-4.17,8.57,0,.01-.02,.04-.05,.05,0,0-.03,.01-.04,0-.02-.01-.01-.08,.11-.46,.02-.07,.06-.19,.13-.33,0,0,0,0,0,0,3.81-7.63,4.05-12.48,4.05-12.48,.03-.62,.08-2.67,.62-5.37,.01-.07,.02-.12,.03-.15,.25-.53,.41-.64,.51-.62Z"/><path class="cls-4" d="M37.54,21.1c-1.09-1.1-3.35-.13-3.58-.03-3.34,1.43-3.95,6.14-4.02,6.81,.74-.43,1.96-1.07,3.55-1.6,2.13-.71,3.13-.62,3.89-1.54,.81-1,1.02-2.78,.17-3.64Zm-3.02,2.06c-.89,.48-1.55,1.02-1.98,1.43,.22-.47,.64-1.16,1.39-1.72,1.63-1.21,3.7-.92,3.72-.79,.02,.11-1.38,.14-3.12,1.07Z"/></g></g></svg>