<?xml version="1.0" encoding="UTF-8"?><svg id="Layer_2" xmlns="http://www.w3.org/2000/svg" xmlns:xlink="http://www.w3.org/1999/xlink" viewBox="0 0 70 70"><defs><style>.cls-1{fill:url(#radial-gradient);}.cls-2{fill:url(#radial-gradient-2);}.cls-3{fill:none;}</style><radialGradient id="radial-gradient" cx="69.33" cy="1.02" fx="69.33" fy="1.02" r="41.22" gradientUnits="userSpaceOnUse"><stop offset=".59" stop-color="#94af33"/><stop offset=".86" stop-color="#b9cd3d"/><stop offset="1" stop-color="#94af33"/></radialGradient><radialGradient id="radial-gradient-2" cx="-247.49" cy="42.34" fx="-247.49" fy="42.34" r="41.22" gradientTransform="translate(-246.82 111.32) rotate(-180)" xlink:href="#radial-gradient"/></defs><g id="Layer_1-2"><rect class="cls-3" width="70" height="70"/><g><path class="cls-1" d="M69.26,27.02c-16.96,0-26.29-8.86-26.29-25.82,0-.38,.01-.82,.03-1.2H27c0,.38-.03,.75-.03,1.13,0,25.76,16.53,41.89,42.29,41.89,.25,0,.49-.01,.74-.02V27c-.25,0-.49,.02-.74,.02Z"/><path class="cls-2" d="M.74,42.98c16.96,0,26.29,8.86,26.29,25.82,0,.38-.01,.82-.03,1.2h16c0-.38,.03-.75,.03-1.13C43.03,43.11,26.5,26.98,.74,26.98c-.25,0-.49,.01-.74,.02v16c.25,0,.49-.02,.74-.02Z"/></g></g></svg>